<?xml version="1.0" encoding="UTF-8"?> <svg xmlns="http://www.w3.org/2000/svg" id="Layer_1" viewBox="0 0 347.2 101.27"><defs><style>.cls-1{fill:#0c183e;}</style></defs><g><path class="cls-1" d="M177.19,21.71h10.82v3.9h-3.77v23.45h3.77v3.9h-11.76v-3.9h3.69V25.61l-10.74,27.68h-.93l-10.66-27.68v23.45h3.44v3.9h-11.09v-3.9h3.79V25.61h-3.79v-3.9h10.72l8.23,21.4,8.27-21.4Z"></path><path class="cls-1" d="M209.51,38.86v10.28h3.65v3.82h-7.42v-2.67c-2.07,2.03-4.38,3.05-6.93,3.05-1.34,0-2.57-.31-3.68-.93-1.11-.62-2-1.45-2.68-2.5-.67-1.04-1.01-2.2-1.01-3.47,0-1.37,.37-2.59,1.11-3.66,.74-1.07,1.74-1.9,3-2.48,1.26-.58,2.52-.87,3.79-.87,2.13,0,4.11,.62,5.95,1.87v-2.34c0-1.7-.36-2.92-1.08-3.65-.72-.73-1.9-1.1-3.55-1.1-1.16,0-2.13,.21-2.91,.63-.78,.42-1.43,1.06-1.94,1.92l-4.11-1.02c.93-1.73,2.18-3.02,3.75-3.87,1.58-.85,3.45-1.27,5.62-1.27,2.92,0,5.05,.66,6.4,1.99,1.35,1.33,2.02,3.42,2.02,6.28Zm-10.12,11.18c2.1,0,4.07-.88,5.91-2.63v-2.55c-1.87-1.45-3.73-2.18-5.6-2.18-1.13,0-2.11,.36-2.93,1.07-.82,.71-1.23,1.61-1.23,2.68s.36,1.9,1.08,2.58c.72,.68,1.65,1.03,2.78,1.03Z"></path><path class="cls-1" d="M234.06,34.32v-3.15h8.19v3.84h-3.94v16.34c0,3.8-.96,6.74-2.87,8.8-1.92,2.07-4.71,3.1-8.39,3.1-3.48,0-6.46-.98-8.92-2.94l2.76-3.09c1,.73,1.99,1.28,3,1.65,1,.37,2.1,.55,3.29,.55,2.16,0,3.84-.67,5.06-2.01,1.22-1.34,1.82-3.12,1.82-5.33v-2.03c-.94,1.11-2.13,1.98-3.58,2.61s-2.89,.95-4.32,.95c-2.02,0-3.83-.51-5.44-1.53-1.61-1.02-2.87-2.38-3.77-4.07-.91-1.69-1.36-3.55-1.36-5.57s.47-3.97,1.42-5.74c.95-1.77,2.24-3.18,3.89-4.23,1.64-1.05,3.47-1.58,5.47-1.58,1.44,0,2.78,.28,4.03,.85,1.25,.57,2.47,1.43,3.66,2.59Zm-7.09,15.45c1.35,0,2.58-.34,3.67-1.02,1.09-.68,1.94-1.59,2.55-2.74,.61-1.15,.91-2.38,.91-3.71,0-1.24-.3-2.44-.91-3.59-.61-1.15-1.45-2.07-2.53-2.78s-2.28-1.06-3.61-1.06-2.48,.34-3.55,1.02c-1.06,.68-1.89,1.59-2.49,2.74-.59,1.15-.89,2.38-.89,3.71s.28,2.6,.85,3.73c.57,1.13,1.37,2.03,2.42,2.7s2.24,1,3.58,1Z"></path><path class="cls-1" d="M265.14,38.3v10.84h3.65v3.82h-7.94v-14.39c0-1.37-.2-2.35-.59-2.94-.39-.59-1.04-.89-1.94-.89-1.91,0-4.05,.94-6.43,2.82v11.59h3.75v3.82h-11.82v-3.82h3.84v-14.14h-3.84v-3.84h8.07v2.63c2.67-1.95,5.18-2.92,7.53-2.92,1.95,0,3.39,.6,4.32,1.8,.93,1.2,1.4,3.08,1.4,5.62Z"></path><path class="cls-1" d="M294.11,42.09c0,2.11-.5,4.05-1.51,5.81-1.01,1.76-2.38,3.14-4.13,4.17s-3.67,1.53-5.78,1.53-4.15-.51-5.91-1.53-3.12-2.41-4.1-4.17c-.97-1.76-1.46-3.69-1.46-5.81s.49-4.19,1.46-5.93c.97-1.74,2.33-3.11,4.07-4.1,1.74-.99,3.72-1.48,5.93-1.48s4.08,.52,5.83,1.57c1.74,1.04,3.11,2.44,4.11,4.2,1,1.76,1.49,3.67,1.49,5.74Zm-11.42,7.34c1.27,0,2.44-.33,3.5-1s1.89-1.56,2.49-2.67,.89-2.34,.89-3.67-.3-2.51-.89-3.63-1.42-2.02-2.49-2.71c-1.06-.68-2.25-1.03-3.55-1.03s-2.44,.34-3.5,1.01c-1.06,.67-1.9,1.57-2.51,2.71-.61,1.13-.91,2.35-.91,3.65s.3,2.52,.91,3.65c.61,1.13,1.45,2.03,2.53,2.7s2.25,1,3.53,1Z"></path><path class="cls-1" d="M308,49.14v3.82h-11.47v-3.82h3.86V25.48h-3.86v-3.77h8.15v27.43h3.32Z"></path><path class="cls-1" d="M321.42,49.14v3.82h-11.01v-3.82h3.4v-14.14h-3.4v-3.84h7.69v17.98h3.32Zm-3.07-25.32c0,.7-.26,1.31-.77,1.82-.51,.51-1.12,.77-1.82,.77s-1.31-.26-1.8-.77c-.5-.51-.75-1.12-.75-1.82s.25-1.31,.75-1.82c.5-.51,1.1-.77,1.8-.77s1.35,.25,1.85,.75,.75,1.11,.75,1.85Z"></path><path class="cls-1" d="M342.52,38.86v10.28h3.65v3.82h-7.42v-2.67c-2.07,2.03-4.38,3.05-6.93,3.05-1.34,0-2.57-.31-3.68-.93-1.11-.62-2-1.45-2.68-2.5-.67-1.04-1.01-2.2-1.01-3.47,0-1.37,.37-2.59,1.11-3.66,.74-1.07,1.74-1.9,3-2.48s2.52-.87,3.79-.87c2.13,0,4.11,.62,5.95,1.87v-2.34c0-1.7-.36-2.92-1.08-3.65-.72-.73-1.9-1.1-3.55-1.1-1.16,0-2.13,.21-2.91,.63-.78,.42-1.43,1.06-1.94,1.92l-4.1-1.02c.93-1.73,2.18-3.02,3.75-3.87,1.58-.85,3.45-1.27,5.62-1.27,2.92,0,5.05,.66,6.4,1.99,1.35,1.33,2.02,3.42,2.02,6.28Zm-10.12,11.18c2.1,0,4.07-.88,5.91-2.63v-2.55c-1.87-1.45-3.73-2.18-5.6-2.18-1.13,0-2.11,.36-2.93,1.07-.82,.71-1.23,1.61-1.23,2.68s.36,1.9,1.08,2.58c.72,.68,1.64,1.03,2.78,1.03Z"></path></g><g><path class="cls-1" d="M159.06,72.34c0,2.49-1.8,3.99-4.78,3.99h-3.14v3.69h-1.24v-11.7h4.38c2.97,0,4.78,1.5,4.78,4.01Zm-1.24,0c0-1.87-1.24-2.94-3.58-2.94h-3.11v5.85h3.11c2.34,0,3.58-1.07,3.58-2.91Z"></path><path class="cls-1" d="M173.31,80.03l-2.67-3.76c-.3,.03-.6,.05-.94,.05h-3.14v3.71h-1.24v-11.7h4.38c2.97,0,4.78,1.5,4.78,4.01,0,1.84-.97,3.12-2.67,3.68l2.86,4.01h-1.35Zm-.07-7.69c0-1.87-1.24-2.94-3.58-2.94h-3.11v5.86h3.11c2.34,0,3.58-1.09,3.58-2.92Z"></path><path class="cls-1" d="M181,68.33h1.24v11.7h-1.24v-11.7Z"></path><path class="cls-1" d="M199.23,68.33l-5.18,11.7h-1.22l-5.18-11.7h1.34l4.48,10.16,4.51-10.16h1.25Z"></path><path class="cls-1" d="M211.49,76.91h-6.52l-1.4,3.12h-1.29l5.35-11.7h1.22l5.35,11.7h-1.3l-1.4-3.12Zm-.45-1l-2.81-6.28-2.81,6.28h5.61Z"></path><path class="cls-1" d="M221.41,69.4h-4.11v-1.07h9.46v1.07h-4.11v10.63h-1.24v-10.63Z"></path><path class="cls-1" d="M240.59,78.96v1.07h-8.27v-11.7h8.02v1.07h-6.78v4.16h6.05v1.05h-6.05v4.34h7.03Z"></path><path class="cls-1" d="M254.02,74.18c0-3.43,2.61-5.95,6.13-5.95,1.7,0,3.24,.57,4.28,1.7l-.79,.79c-.95-.97-2.12-1.39-3.46-1.39-2.82,0-4.95,2.07-4.95,4.85s2.12,4.84,4.95,4.84c1.34,0,2.51-.42,3.46-1.4l.79,.79c-1.04,1.14-2.57,1.72-4.29,1.72-3.51,0-6.12-2.52-6.12-5.95Z"></path><path class="cls-1" d="M277.7,76.91h-6.52l-1.4,3.12h-1.29l5.35-11.7h1.22l5.35,11.7h-1.3l-1.4-3.12Zm-.45-1l-2.81-6.28-2.81,6.28h5.61Z"></path><path class="cls-1" d="M295.09,72.34c0,2.49-1.8,3.99-4.78,3.99h-3.14v3.69h-1.24v-11.7h4.38c2.97,0,4.78,1.5,4.78,4.01Zm-1.24,0c0-1.87-1.24-2.94-3.58-2.94h-3.11v5.85h3.11c2.34,0,3.58-1.07,3.58-2.91Z"></path><path class="cls-1" d="M301.35,68.33h1.24v11.7h-1.24v-11.7Z"></path><path class="cls-1" d="M312.26,69.4h-4.11v-1.07h9.46v1.07h-4.11v10.63h-1.24v-10.63Z"></path><path class="cls-1" d="M329.92,76.91h-6.52l-1.4,3.12h-1.29l5.35-11.7h1.22l5.35,11.7h-1.3l-1.4-3.12Zm-.45-1l-2.81-6.28-2.81,6.28h5.61Z"></path><path class="cls-1" d="M338.16,68.33h1.24v10.63h6.55v1.07h-7.79v-11.7Z"></path></g><path class="cls-1" d="M131.76,72.28c-.06-.08-2.23-2.96-5.84-6.09-1.81-1.56-3.98-3.19-6.46-4.54-2.02-1.1-4.24-2.02-6.63-2.56,.93-1.27,1.83-2.61,2.64-4.03,2.75-4.76,4.73-10.38,5.06-16.79,.05-.99-.62-1.87-1.58-2.1-.1-.02-4.63-1.07-11.08-1.07-2.07,0-4.35,.11-6.73,.4,.01-.39,.02-.81,.02-1.28,0-1.95-.12-4.52-.59-7.26-.47-2.74-1.28-5.64-2.76-8.25-.39-.7-1.16-1.1-1.96-1.03-.11,.01-2.88,.26-6.6,1.47-3.13,1.02-6.96,2.74-10.37,5.64-2.07-4.29-4.58-7.55-6.75-9.86-2.86-3.04-5.16-4.47-5.27-4.54-.69-.42-1.56-.41-2.22,.05-3.77,2.56-6.64,5.73-8.82,9.09-1.12,1.72-2.05,3.48-2.83,5.24-3.41-2.89-7.22-4.59-10.34-5.61-3.72-1.21-6.49-1.46-6.6-1.47-.8-.07-1.57,.33-1.96,1.03-1.47,2.61-2.29,5.52-2.76,8.25-.47,2.74-.59,5.31-.59,7.26,0,.43,0,.82,.02,1.18-2.05-.21-4.02-.3-5.82-.3-6.45,0-10.98,1.05-11.08,1.07-.96,.22-1.63,1.11-1.58,2.1,.33,6.41,2.31,12.02,5.06,16.79,.82,1.42,1.71,2.76,2.64,4.03-2.38,.54-4.61,1.46-6.62,2.56-3.71,2.03-6.75,4.67-8.89,6.81-2.14,2.14-3.37,3.78-3.41,3.83-.6,.79-.54,1.9,.14,2.63,5.83,6.21,11.64,10.4,17.3,13.03,5.65,2.63,11.14,3.69,16.22,3.68,4.82,0,9.28-.94,13.24-2.34,5.94-2.1,10.78-5.21,14.15-7.8,1.94-1.5,3.4-2.82,4.3-3.68,1.42,1.37,4.22,3.87,8.14,6.39,2.87,1.85,6.34,3.7,10.3,5.09,3.96,1.4,8.42,2.34,13.24,2.34,5.09,0,10.57-1.06,16.22-3.68,5.65-2.63,11.47-6.82,17.3-13.03,.68-.72,.74-1.83,.15-2.63ZM90.53,23.03c1.65-.54,3.1-.86,4.12-1.05,.08-.01,.15-.03,.22-.04,.8,1.76,1.34,3.75,1.67,5.71,.42,2.43,.53,4.79,.53,6.57,0,.77-.02,1.43-.05,1.95-.46,.09-.91,.19-1.37,.3-3.29,.78-6.68,1.97-9.97,3.72-.87,.46-1.73,.97-2.58,1.52-.25-4.79-1.16-9-2.44-12.63-.03-.09-.07-.19-.1-.28,3.06-2.96,6.85-4.75,9.96-5.76Zm-31.29-1.29c1.7-2.61,3.84-5.05,6.55-7.11,1.4,1.09,3.96,3.33,6.45,6.88,1.74,2.48,3.45,5.58,4.73,9.37,1.28,3.8,2.13,8.28,2.13,13.55,0,.09,0,.18,0,.28-2.45,2.12-4.74,4.67-6.73,7.74-2.5,3.85-4.55,8.49-5.96,14.05-1.18-4.64-2.8-8.65-4.76-12.08-2.32-4.06-5.11-7.32-8.15-9.9-.18-.15-.37-.3-.55-.45,.04-2.41,.37-7.52,2.08-13.1,.94-3.06,2.29-6.25,4.22-9.22Zm-24.41,12.48c0-1.78,.11-4.14,.53-6.57,.33-1.96,.87-3.95,1.67-5.71,1.06,.19,2.66,.53,4.5,1.14,3.1,1.03,6.84,2.82,9.87,5.77-.66,1.99-1.15,3.93-1.51,5.74-.51,2.54-.78,4.83-.91,6.66-3.31-2.02-6.77-3.42-10.17-4.36-1.33-.37-2.65-.66-3.94-.91-.02-.49-.04-1.08-.04-1.77Zm11.68,51.24c-3.58,1.25-7.54,2.07-11.8,2.07-4.53,0-9.38-.93-14.5-3.3-4.73-2.2-9.7-5.66-14.79-10.83,.93-1.07,2.41-2.64,4.3-4.26,1.63-1.4,3.57-2.82,5.69-3.97,2.12-1.15,4.42-2.02,6.79-2.36,.22-.03,.43-.11,.62-.2,3.06,3.45,6.35,6.24,9.26,8.37,4.8,3.51,8.57,5.27,8.65,5.31,1.02,.48,2.24,.03,2.72-.99,.48-1.02,.03-2.24-.99-2.72h0c-.09-.04-6.44-3.04-12.82-8.87-3.19-2.91-6.38-6.53-8.83-10.81-2.19-3.83-3.79-8.17-4.31-13.07,1.77-.28,4.77-.65,8.43-.65,3.36,0,7.28,.31,11.28,1.26,3,.71,6.06,1.79,8.98,3.35,.64,.34,1.27,.7,1.89,1.09,.62,.39,4.88,3.73,5.42,4.25,1.62,1.59,3.14,3.42,4.51,5.54,2.91,4.47,5.21,10.24,6.44,17.71-5.41-1.4-9.81-3.74-13.39-6.54-5.74-4.49-9.4-10.15-11.6-14.7-1.1-2.27-1.84-4.26-2.3-5.67-.23-.7-.39-1.26-.49-1.64-.05-.19-.09-.33-.11-.42l-.02-.1v-.02h0c-.24-1.1-1.33-1.8-2.44-1.56-1.1,.24-1.8,1.33-1.56,2.44h0c.04,.15,1.48,6.67,6.2,14.01,2.36,3.67,5.55,7.54,9.81,10.87,3.89,3.05,8.7,5.63,14.5,7.18-1.46,1.27-3.53,2.93-6.12,4.59-2.65,1.69-5.84,3.37-9.41,4.63Zm66.08-1.23c-5.12,2.38-9.97,3.3-14.5,3.3-4.28,0-8.28-.84-11.88-2.1-5.4-1.9-9.89-4.78-13.02-7.19-1.04-.8-1.93-1.55-2.65-2.19,3.61-1.14,9.16-3.39,14.65-7.68,3.17-2.48,6.31-5.64,9-9.65,2.69-4.01,4.93-8.86,6.3-14.68,.26-1.1-.42-2.2-1.52-2.46-1.1-.26-2.2,.42-2.46,1.52-1.26,5.35-3.29,9.72-5.71,13.33-3.63,5.41-8.18,9.12-12.42,11.64-3.43,2.04-6.65,3.3-8.97,4.03,1.08-6.4,2.95-11.55,5.32-15.69,2.09-3.65,4.56-6.53,7.25-8.81,4.04-3.43,8.6-5.54,13.12-6.79,4.52-1.26,9-1.65,12.78-1.65,3,0,5.57,.25,7.37,.49,.39,.05,.74,.11,1.06,.16-.53,4.95-2.15,9.33-4.37,13.18-3.72,6.45-9.13,11.39-13.63,14.68-2.25,1.65-4.26,2.88-5.7,3.7-.72,.41-1.3,.71-1.69,.91-.2,.1-.35,.17-.44,.22l-.11,.05h-.02s0,.01,0,.01h0c-1.02,.48-1.47,1.69-.99,2.72,.48,1.02,1.69,1.47,2.72,.99h0c.12-.06,6.78-3.15,13.69-9.41,1.42-1.29,2.84-2.71,4.22-4.27,.19,.1,.4,.17,.63,.21,2.41,.34,4.74,1.23,6.89,2.41,3.22,1.76,6.01,4.16,7.96,6.11,.79,.79,1.43,1.49,1.93,2.06-5.09,5.17-10.06,8.63-14.79,10.83Z"></path></svg> 